<svg class="svg-icon" style="width: 1em; height: 1em;vertical-align: middle;fill: currentColor;overflow: hidden;" viewBox="0 0 1024 1024" version="1.1" xmlns="http://www.w3.org/2000/svg"><path d="M511.38704 951.479313c-247.110027 0-448.149786-201.039759-448.149786-448.149786S264.277012 55.180763 511.38704 55.180763s448.13853 201.039759 448.13853 448.149786S758.496044 951.479313 511.38704 951.479313zM511.38704 77.041654c-235.05855 0-426.288896 191.230346-426.288896 426.288896s191.230346 426.288896 426.288896 426.288896c235.048317 0 426.27764-191.230346 426.27764-426.288896S746.434334 77.041654 511.38704 77.041654z"  /><path d="M697.087439 699.972139c-2.796696 0-5.593392-1.067308-7.728008-3.201925L317.947376 325.346903c-4.269233-4.269233-4.269233-11.186783 0-15.456017 4.269233-4.269233 11.186783-4.269233 15.456017 0l371.412055 371.422288c4.269233 4.269233 4.269233 11.186783 0 15.456017C702.68083 698.904831 699.884135 699.972139 697.087439 699.972139z"  /><path d="M325.675384 699.972139c-2.796696 0-5.593392-1.067308-7.728008-3.201925-4.269233-4.269233-4.269233-11.186783 0-15.456017L689.35943 309.890886c4.269233-4.269233 11.186783-4.269233 15.456017 0 4.269233 4.269233 4.269233 11.186783 0 15.456017L333.403392 696.770214C331.268776 698.904831 328.47208 699.972139 325.675384 699.972139z"  /></svg>